<svg width="15" height="12" viewBox="0 0 15 12" fill="none" xmlns="http://www.w3.org/2000/svg">
<mask id="path-1-inside-1_604_299" fill="white">
<path d="M12.1752 0.400391C12.7388 0.400391 13.2793 0.624274 13.6778 1.02279C14.0763 1.4213 14.3002 1.96181 14.3002 2.52539V9.32539C14.3002 9.88898 14.0763 10.4295 13.6778 10.828C13.2793 11.2265 12.7388 11.4504 12.1752 11.4504H2.8252C2.26161 11.4504 1.72111 11.2265 1.32259 10.828C0.924079 10.4295 0.700195 9.88898 0.700195 9.32539V2.52539C0.700195 1.96181 0.924079 1.4213 1.32259 1.02279C1.72111 0.624274 2.26161 0.400391 2.8252 0.400391H12.1752ZM13.4502 3.76724L7.7161 7.14174C7.66188 7.17357 7.60129 7.19298 7.53867 7.19856C7.47606 7.20415 7.41298 7.19577 7.354 7.17404L7.2843 7.14174L1.5502 3.76894V9.32539C1.5502 9.66354 1.68453 9.98784 1.92363 10.227C2.16274 10.4661 2.48704 10.6004 2.8252 10.6004H12.1752C12.5133 10.6004 12.8376 10.4661 13.0768 10.227C13.3159 9.98784 13.4502 9.66354 13.4502 9.32539V3.76724ZM12.1752 1.25039H2.8252C2.48704 1.25039 2.16274 1.38472 1.92363 1.62383C1.68453 1.86294 1.5502 2.18724 1.5502 2.52539V2.78209L7.5002 6.28239L13.4502 2.78039V2.52539C13.4502 2.18724 13.3159 1.86294 13.0768 1.62383C12.8376 1.38472 12.5133 1.25039 12.1752 1.25039Z"/>
</mask>
<path d="M12.1752 0.400391C12.7388 0.400391 13.2793 0.624274 13.6778 1.02279C14.0763 1.4213 14.3002 1.96181 14.3002 2.52539V9.32539C14.3002 9.88898 14.0763 10.4295 13.6778 10.828C13.2793 11.2265 12.7388 11.4504 12.1752 11.4504H2.8252C2.26161 11.4504 1.72111 11.2265 1.32259 10.828C0.924079 10.4295 0.700195 9.88898 0.700195 9.32539V2.52539C0.700195 1.96181 0.924079 1.4213 1.32259 1.02279C1.72111 0.624274 2.26161 0.400391 2.8252 0.400391H12.1752ZM13.4502 3.76724L7.7161 7.14174C7.66188 7.17357 7.60129 7.19298 7.53867 7.19856C7.47606 7.20415 7.41298 7.19577 7.354 7.17404L7.2843 7.14174L1.5502 3.76894V9.32539C1.5502 9.66354 1.68453 9.98784 1.92363 10.227C2.16274 10.4661 2.48704 10.6004 2.8252 10.6004H12.1752C12.5133 10.6004 12.8376 10.4661 13.0768 10.227C13.3159 9.98784 13.4502 9.66354 13.4502 9.32539V3.76724ZM12.1752 1.25039H2.8252C2.48704 1.25039 2.16274 1.38472 1.92363 1.62383C1.68453 1.86294 1.5502 2.18724 1.5502 2.52539V2.78209L7.5002 6.28239L13.4502 2.78039V2.52539C13.4502 2.18724 13.3159 1.86294 13.0768 1.62383C12.8376 1.38472 12.5133 1.25039 12.1752 1.25039Z" fill="black"/>
<path d="M12.1752 0.400391V-0.820697V0.400391ZM13.4502 3.76724H14.6713V1.63179L12.8309 2.71486L13.4502 3.76724ZM7.7161 7.14174L8.33435 8.19475L8.33542 8.19412L7.7161 7.14174ZM7.354 7.17404L6.84058 8.28195L6.88546 8.30275L6.93188 8.31985L7.354 7.17404ZM7.2843 7.14174L6.66521 8.19425L6.71669 8.22453L6.77088 8.24965L7.2843 7.14174ZM1.5502 3.76894L2.16928 2.71643L0.329108 1.63403V3.76894H1.5502ZM2.8252 10.6004V11.8215V10.6004ZM12.1752 10.6004V11.8215V10.6004ZM1.5502 2.78209H0.329108V3.48046L0.93104 3.83456L1.5502 2.78209ZM7.5002 6.28239L6.88104 7.33486L7.50035 7.69919L8.11957 7.33473L7.5002 6.28239ZM13.4502 2.78039L14.0696 3.83273L14.6713 3.47858V2.78039H13.4502ZM13.4502 2.52539H14.6713H13.4502ZM12.1752 1.62148C12.4149 1.62148 12.6448 1.71671 12.8144 1.88623L14.5412 0.15935C13.9137 -0.468164 13.0626 -0.820697 12.1752 -0.820697V1.62148ZM12.8144 1.88623C12.9839 2.05574 13.0791 2.28566 13.0791 2.52539H15.5213C15.5213 1.63795 15.1687 0.786863 14.5412 0.15935L12.8144 1.88623ZM13.0791 2.52539V9.32539H15.5213V2.52539H13.0791ZM13.0791 9.32539C13.0791 9.56512 12.9839 9.79504 12.8144 9.96455L14.5412 11.6914C15.1688 11.0639 15.5213 10.2128 15.5213 9.32539H13.0791ZM12.8144 9.96455C12.6448 10.1341 12.4149 10.2293 12.1752 10.2293V12.6715C13.0626 12.6715 13.9137 12.3189 14.5412 11.6914L12.8144 9.96455ZM12.1752 10.2293H2.8252V12.6715H12.1752V10.2293ZM2.8252 10.2293C2.58546 10.2293 2.35555 10.1341 2.18603 9.96455L0.459154 11.6914C1.08667 12.3189 1.93776 12.6715 2.8252 12.6715V10.2293ZM2.18603 9.96455C2.01652 9.79504 1.92128 9.56512 1.92128 9.32539H-0.520892C-0.520892 10.2128 -0.168359 11.0639 0.459154 11.6914L2.18603 9.96455ZM1.92128 9.32539V2.52539H-0.520892V9.32539H1.92128ZM1.92128 2.52539C1.92128 2.28566 2.01652 2.05574 2.18603 1.88623L0.459154 0.15935C-0.168359 0.786863 -0.520892 1.63795 -0.520892 2.52539H1.92128ZM2.18603 1.88623C2.35555 1.71671 2.58546 1.62148 2.8252 1.62148V-0.820697C1.93776 -0.820697 1.08667 -0.468164 0.459154 0.15935L2.18603 1.88623ZM2.8252 1.62148H12.1752V-0.820697H2.8252V1.62148ZM12.8309 2.71486L7.09678 6.08936L8.33542 8.19412L14.0695 4.81962L12.8309 2.71486ZM7.09784 6.08874C7.19939 6.02912 7.31289 5.99276 7.43018 5.9823L7.64717 8.41482C7.88968 8.39319 8.12438 8.31802 8.33435 8.19474L7.09784 6.08874ZM7.43018 5.9823C7.54747 5.97184 7.66562 5.98753 7.77611 6.02823L6.93188 8.31985C7.16035 8.40401 7.40464 8.43645 7.64717 8.41482L7.43018 5.9823ZM7.86741 6.06613L7.79771 6.03383L6.77088 8.24965L6.84058 8.28195L7.86741 6.06613ZM7.90338 6.08923L2.16928 2.71643L0.931107 4.82145L6.66521 8.19425L7.90338 6.08923ZM0.329108 3.76894V9.32539H2.77128V3.76894H0.329108ZM0.329108 9.32539C0.329108 9.98739 0.592088 10.6223 1.0602 11.0904L2.78707 9.36351C2.77696 9.3534 2.77128 9.33969 2.77128 9.32539H0.329108ZM1.0602 11.0904C1.5283 11.5585 2.16319 11.8215 2.8252 11.8215V9.3793C2.8109 9.3793 2.79718 9.37362 2.78707 9.36351L1.0602 11.0904ZM2.8252 11.8215H12.1752V9.3793H2.8252V11.8215ZM12.1752 11.8215C12.8372 11.8215 13.4721 11.5585 13.9402 11.0904L12.2133 9.36351C12.2032 9.37362 12.1895 9.3793 12.1752 9.3793V11.8215ZM13.9402 11.0904C14.4083 10.6223 14.6713 9.98739 14.6713 9.32539H12.2291C12.2291 9.33969 12.2234 9.3534 12.2133 9.36351L13.9402 11.0904ZM14.6713 9.32539V3.76724H12.2291V9.32539H14.6713ZM12.1752 0.0293032H2.8252V2.47148H12.1752V0.0293032ZM2.8252 0.0293032C2.16319 0.0293032 1.5283 0.292283 1.0602 0.76039L2.78707 2.48727C2.79718 2.47716 2.8109 2.47148 2.8252 2.47148V0.0293032ZM1.0602 0.76039C0.592088 1.2285 0.329108 1.86339 0.329108 2.52539H2.77128C2.77128 2.51109 2.77696 2.49738 2.78707 2.48727L1.0602 0.76039ZM0.329108 2.52539V2.78209H2.77128V2.52539H0.329108ZM0.93104 3.83456L6.88104 7.33486L8.11935 5.22992L2.16935 1.72962L0.93104 3.83456ZM8.11957 7.33473L14.0696 3.83273L12.8308 1.72805L6.88082 5.23005L8.11957 7.33473ZM14.6713 2.78039V2.52539H12.2291V2.78039H14.6713ZM14.6713 2.52539C14.6713 1.86339 14.4083 1.2285 13.9402 0.76039L12.2133 2.48727C12.2234 2.49738 12.2291 2.51109 12.2291 2.52539H14.6713ZM13.9402 0.76039C13.4721 0.292283 12.8372 0.0293032 12.1752 0.0293032V2.47148C12.1895 2.47148 12.2032 2.47716 12.2133 2.48727L13.9402 0.76039Z" fill="black" mask="url(#path-1-inside-1_604_299)"/>
</svg>
