<svg width="14" height="14" viewBox="0 0 14 14" fill="none" xmlns="http://www.w3.org/2000/svg">
<mask id="path-1-inside-1_604_294" fill="white">
<path d="M12.872 11.073L13.2467 11.4498L12.8712 11.073H12.872ZM3.94271 9.54583L4.31671 9.169L3.942 9.54583H3.94271ZM1.02012 2.04317L0.646123 1.66704L1.02083 2.04388L1.02012 2.04317ZM9.47621 8.95367L9.79991 8.63279L9.04979 7.87913L8.72821 8.2L9.47621 8.95367ZM10.883 8.49821L12.2366 9.23417L12.743 8.30058L11.3901 7.56533L10.883 8.49821ZM12.4965 10.6962L11.4907 11.697L12.2394 12.45L13.2452 11.4498L12.4965 10.6962ZM10.8773 12.0186C9.85021 12.115 7.19396 12.0293 4.31671 9.169L3.56729 9.92196C6.70662 13.0436 9.69508 13.1966 10.9765 13.0769L10.8766 12.0186H10.8773ZM4.31671 9.169C1.57475 6.44192 1.12 4.14904 1.06333 3.15383L0.00224784 3.21404C0.0730812 4.46638 0.636206 7.00788 3.56729 9.92196L4.31671 9.169ZM5.29066 4.7915L5.49396 4.58892L4.74596 3.83596L4.54266 4.03783L5.29137 4.79079L5.29066 4.7915ZM5.65546 2.01413L4.76296 0.821292L3.91225 1.45879L4.80475 2.65092L5.65546 2.01413ZM1.75891 0.561334L0.646831 1.66633L1.39625 2.42L2.50762 1.315L1.75891 0.561334ZM4.91666 4.41467C4.54125 4.03783 4.54125 4.03783 4.54125 4.03925H4.53983L4.53771 4.04208C4.50426 4.07622 4.47414 4.11345 4.44775 4.15329C4.4095 4.20996 4.36771 4.28433 4.33229 4.37854C4.24604 4.62172 4.22455 4.88317 4.26996 5.13717C4.36487 5.74988 4.78704 6.5595 5.86796 7.63475L6.61737 6.88108C5.60516 5.87525 5.36433 5.26325 5.31971 4.97425C5.29846 4.83683 5.32042 4.76883 5.32679 4.75325C5.33033 4.74333 5.33175 4.74263 5.32679 4.749C5.32054 4.75882 5.31343 4.76807 5.30554 4.77663L5.29846 4.78371C5.29617 4.78591 5.2938 4.78804 5.29137 4.79008L4.91596 4.41467H4.91666ZM5.86796 7.63475C6.94958 8.71 7.76346 9.12933 8.37687 9.22283C8.69066 9.271 8.94354 9.23275 9.1355 9.16121C9.24284 9.12148 9.34324 9.06507 9.433 8.99404C9.44519 8.98385 9.457 8.97322 9.46841 8.96217L9.47337 8.95792L9.4755 8.95579L9.47621 8.95438C9.47621 8.95438 9.47691 8.95367 9.10221 8.57683C8.72679 8.2 8.72891 8.19929 8.72891 8.19929L8.73033 8.19788L8.73175 8.19646L8.736 8.19292L8.74308 8.18583C8.7516 8.17819 8.76059 8.17109 8.77 8.16458C8.77708 8.15963 8.77496 8.16175 8.76504 8.166C8.74733 8.17238 8.67791 8.19433 8.53837 8.17308C8.24512 8.12775 7.62887 7.88692 6.61737 6.88108L5.86796 7.63475ZM4.76296 0.820584C4.04046 -0.142749 2.62096 -0.295749 1.75891 0.561334L2.50762 1.315C2.88446 0.940292 3.55312 0.979251 3.91225 1.45879L4.76225 0.820584H4.76296ZM1.06404 3.15454C1.04987 2.90946 1.1625 2.65304 1.39625 2.42071L0.646123 1.66704C0.265748 2.04529 -0.0338772 2.58079 0.00224784 3.21404L1.06404 3.15454ZM11.4907 11.697C11.2966 11.8911 11.087 12.0002 10.878 12.0193L10.9765 13.0769C11.4971 13.028 11.9228 12.7659 12.2401 12.4507L11.4907 11.697ZM5.49396 4.58892C6.19166 3.89546 6.24337 2.79967 5.65616 2.01483L4.80546 2.65163C5.09091 3.03342 5.04841 3.53421 4.74525 3.83667L5.49396 4.58892ZM12.2373 9.23488C12.816 9.54938 12.906 10.2903 12.4972 10.6969L13.2467 11.4498C14.1958 10.5056 13.9033 8.931 12.7437 8.30129L12.2373 9.23488ZM9.79991 8.6335C10.0719 8.36292 10.5097 8.29633 10.8837 8.49892L11.3908 7.56604C10.623 7.14813 9.671 7.26358 9.0505 7.87983L9.79991 8.6335Z"/>
</mask>
<path d="M12.872 11.073L13.2467 11.4498L12.8712 11.073H12.872ZM3.94271 9.54583L4.31671 9.169L3.942 9.54583H3.94271ZM1.02012 2.04317L0.646123 1.66704L1.02083 2.04388L1.02012 2.04317ZM9.47621 8.95367L9.79991 8.63279L9.04979 7.87913L8.72821 8.2L9.47621 8.95367ZM10.883 8.49821L12.2366 9.23417L12.743 8.30058L11.3901 7.56533L10.883 8.49821ZM12.4965 10.6962L11.4907 11.697L12.2394 12.45L13.2452 11.4498L12.4965 10.6962ZM10.8773 12.0186C9.85021 12.115 7.19396 12.0293 4.31671 9.169L3.56729 9.92196C6.70662 13.0436 9.69508 13.1966 10.9765 13.0769L10.8766 12.0186H10.8773ZM4.31671 9.169C1.57475 6.44192 1.12 4.14904 1.06333 3.15383L0.00224784 3.21404C0.0730812 4.46638 0.636206 7.00788 3.56729 9.92196L4.31671 9.169ZM5.29066 4.7915L5.49396 4.58892L4.74596 3.83596L4.54266 4.03783L5.29137 4.79079L5.29066 4.7915ZM5.65546 2.01413L4.76296 0.821292L3.91225 1.45879L4.80475 2.65092L5.65546 2.01413ZM1.75891 0.561334L0.646831 1.66633L1.39625 2.42L2.50762 1.315L1.75891 0.561334ZM4.91666 4.41467C4.54125 4.03783 4.54125 4.03783 4.54125 4.03925H4.53983L4.53771 4.04208C4.50426 4.07622 4.47414 4.11345 4.44775 4.15329C4.4095 4.20996 4.36771 4.28433 4.33229 4.37854C4.24604 4.62172 4.22455 4.88317 4.26996 5.13717C4.36487 5.74988 4.78704 6.5595 5.86796 7.63475L6.61737 6.88108C5.60516 5.87525 5.36433 5.26325 5.31971 4.97425C5.29846 4.83683 5.32042 4.76883 5.32679 4.75325C5.33033 4.74333 5.33175 4.74263 5.32679 4.749C5.32054 4.75882 5.31343 4.76807 5.30554 4.77663L5.29846 4.78371C5.29617 4.78591 5.2938 4.78804 5.29137 4.79008L4.91596 4.41467H4.91666ZM5.86796 7.63475C6.94958 8.71 7.76346 9.12933 8.37687 9.22283C8.69066 9.271 8.94354 9.23275 9.1355 9.16121C9.24284 9.12148 9.34324 9.06507 9.433 8.99404C9.44519 8.98385 9.457 8.97322 9.46841 8.96217L9.47337 8.95792L9.4755 8.95579L9.47621 8.95438C9.47621 8.95438 9.47691 8.95367 9.10221 8.57683C8.72679 8.2 8.72891 8.19929 8.72891 8.19929L8.73033 8.19788L8.73175 8.19646L8.736 8.19292L8.74308 8.18583C8.7516 8.17819 8.76059 8.17109 8.77 8.16458C8.77708 8.15963 8.77496 8.16175 8.76504 8.166C8.74733 8.17238 8.67791 8.19433 8.53837 8.17308C8.24512 8.12775 7.62887 7.88692 6.61737 6.88108L5.86796 7.63475ZM4.76296 0.820584C4.04046 -0.142749 2.62096 -0.295749 1.75891 0.561334L2.50762 1.315C2.88446 0.940292 3.55312 0.979251 3.91225 1.45879L4.76225 0.820584H4.76296ZM1.06404 3.15454C1.04987 2.90946 1.1625 2.65304 1.39625 2.42071L0.646123 1.66704C0.265748 2.04529 -0.0338772 2.58079 0.00224784 3.21404L1.06404 3.15454ZM11.4907 11.697C11.2966 11.8911 11.087 12.0002 10.878 12.0193L10.9765 13.0769C11.4971 13.028 11.9228 12.7659 12.2401 12.4507L11.4907 11.697ZM5.49396 4.58892C6.19166 3.89546 6.24337 2.79967 5.65616 2.01483L4.80546 2.65163C5.09091 3.03342 5.04841 3.53421 4.74525 3.83667L5.49396 4.58892ZM12.2373 9.23488C12.816 9.54938 12.906 10.2903 12.4972 10.6969L13.2467 11.4498C14.1958 10.5056 13.9033 8.931 12.7437 8.30129L12.2373 9.23488ZM9.79991 8.6335C10.0719 8.36292 10.5097 8.29633 10.8837 8.49892L11.3908 7.56604C10.623 7.14813 9.671 7.26358 9.0505 7.87983L9.79991 8.6335Z" fill="black"/>
<path d="M2.50762 1.315L2.25319 1.56847L2.76241 1.06189L2.50762 1.315ZM9.35712 8.32384L8.98312 7.94701L8.4733 8.45299L8.8473 8.82983L9.35712 8.32384ZM9.17054 8.50919L9.54524 8.88603L10.0546 8.37956L9.67988 8.00273L9.17054 8.50919ZM10.8216 7.86018L10.568 8.32768L11.1994 8.67016L11.4529 8.20266L10.8216 7.86018ZM12.1746 8.59594L11.921 9.06273L12.5522 9.40561L12.8057 8.93882L12.1746 8.59594ZM12.1203 11.8195L11.7449 11.4433L11.2365 11.9508L11.6119 12.3269L12.1203 11.8195ZM10.5693 12.5813L10.6189 13.1104L11.334 13.0434L11.2844 12.5142L10.5693 12.5813ZM0.512682 2.82571L-0.0178596 2.85546L0.0223553 3.57262L0.552897 3.54287L0.512682 2.82571ZM4.86411 4.46556L5.23953 4.84239L5.74839 4.33544L5.37297 3.95861L4.86411 4.46556ZM5.44493 2.61971L5.86993 2.30167L5.43957 1.72658L5.01457 2.04462L5.44493 2.61971ZM4.1227 0.852556L3.69699 1.17131L4.1275 1.74628L4.55321 1.42753L4.1227 0.852556ZM1.87778 1.19164L2.25319 1.56847L2.76205 1.06153L2.38664 0.684694L1.87778 1.19164ZM6.49663 7.51115L6.87133 7.13432L6.36199 6.62785L5.98729 7.00468L6.49663 7.51115ZM4.06216 8.91565L3.31274 9.66861L3.82184 10.1753L4.57126 9.42235L4.06216 8.91565ZM2.76241 1.06189L2.0137 0.308221L1.50412 0.814447L2.25283 1.56811L2.76241 1.06189ZM6.12263 7.88798L6.87204 7.13432L6.3627 6.62785L5.61329 7.38152L6.12263 7.88798ZM9.10221 8.57683L9.61155 8.07037L9.61107 8.06989L9.10221 8.57683ZM8.72821 8.2L8.22086 7.69154L7.71375 8.19753L8.21839 8.70599L8.72821 8.2ZM9.79991 8.63279L10.3056 9.14292L10.8168 8.63622L10.309 8.12608L9.79991 8.63279ZM10.8837 8.49892L10.5416 9.1305L11.1722 9.47208L11.5147 8.842L10.8837 8.49892ZM12.2366 9.23417L11.8935 9.86521L12.5251 10.2086L12.8679 9.57668L12.2366 9.23417ZM12.872 11.073L13.3813 10.5665L13.1707 10.3547H12.872V11.073ZM13.2467 11.4498L12.7378 11.9568L13.2444 12.4653L13.7532 11.9591L13.2467 11.4498ZM12.8712 11.073V10.3547H11.1418L12.3624 11.5799L12.8712 11.073ZM11.4907 11.697L10.9841 11.1879L10.9828 11.1891L11.4907 11.697ZM10.9765 13.0769L11.0433 13.792L11.0436 13.792L10.9765 13.0769ZM3.94271 9.54583V10.2641H4.24182L4.45252 10.0518L3.94271 9.54583ZM3.942 9.54583L3.43266 9.03937L2.21481 10.2641H3.942V9.54583ZM2.50762 1.315L3.01407 1.82436L3.01409 1.82434L2.50762 1.315ZM1.02012 2.04317L0.510779 2.54963L0.512218 2.55107L1.02012 2.04317ZM0.646123 1.66704L1.15522 1.16033L0.648741 0.651462L0.139642 1.15772L0.646123 1.66704ZM1.02083 2.04388L0.512926 2.55178L1.53017 1.53741L1.02083 2.04388ZM9.47621 8.95367L8.96639 9.45965L9.47206 9.96915L9.98187 9.4638L9.47621 8.95367ZM9.04979 7.87913L9.55889 7.37242L9.05155 6.86268L8.54244 7.37066L9.04979 7.87913ZM10.883 8.49821L10.2519 8.15513L9.90883 8.78617L10.5399 9.12926L10.883 8.49821ZM12.743 8.30058L13.3744 8.64309L13.7167 8.0122L13.086 7.66947L12.743 8.30058ZM11.3901 7.56533L11.7331 6.93422L11.1021 6.5913L10.7591 7.22225L11.3901 7.56533ZM12.4965 10.6962L13.0061 10.1899L12.4995 9.67994L11.9899 10.187L12.4965 10.6962ZM12.2394 12.45L11.7301 12.9565L12.2365 13.4658L12.7459 12.9593L12.2394 12.45ZM13.2452 11.4498L13.7517 11.9592L14.2608 11.4529L13.7548 10.9436L13.2452 11.4498ZM10.8773 12.0186L10.9444 12.7338L10.8773 11.3003V12.0186ZM3.56729 9.92196L4.07376 9.41262L4.07372 9.41258L3.56729 9.92196ZM10.8766 12.0186V11.3003H10.0873L10.1615 12.0861L10.8766 12.0186ZM1.06333 3.15383L1.78046 3.113L1.73963 2.39602L1.02264 2.4367L1.06333 3.15383ZM5.29066 4.7915L4.78276 4.2836L5.79768 5.30029L5.29066 4.7915ZM4.74596 3.83596L5.25554 3.32973L4.74941 2.82025L4.23983 3.32628L4.74596 3.83596ZM4.54266 4.03783L4.03654 3.52816L3.52652 4.03462L4.03332 4.5443L4.54266 4.03783ZM5.29137 4.79079L5.79928 5.2987L6.30575 4.79223L5.80071 4.28433L5.29137 4.79079ZM5.65546 2.01413L6.08589 2.58916L6.6608 2.15881L6.23058 1.58381L5.65546 2.01413ZM4.76296 0.821292L5.33808 0.390976L4.90744 -0.184571L4.33221 0.246491L4.76296 0.821292ZM4.80475 2.65092L4.22975 3.0814L4.6602 3.65635L5.23518 3.22595L4.80475 2.65092ZM1.75891 0.561334L2.26519 1.07086L2.26535 1.0707L1.75891 0.561334ZM0.646831 1.66633L0.140551 1.15681L-0.369162 1.66327L0.137492 2.1728L0.646831 1.66633ZM1.39625 2.42L0.886909 2.92647L1.39335 3.43578L1.90269 2.92936L1.39625 2.42ZM4.91666 4.41467V5.13295H6.64615L5.42553 3.90772L4.91666 4.41467ZM4.54125 4.03925V4.75754H5.25953V4.03925H4.54125ZM4.53983 4.03925V3.32096H4.18072L3.96523 3.60823L4.53983 4.03925ZM4.53771 4.04208L5.05077 4.54478L5.0839 4.51097L5.1123 4.4731L4.53771 4.04208ZM4.44775 4.15329L5.04312 4.55517L5.04655 4.55L4.44775 4.15329ZM4.33229 4.37854L3.65983 4.12574L3.65532 4.13843L4.33229 4.37854ZM4.26996 5.13717L4.97978 5.02721L4.9785 5.01898L4.97704 5.01078L4.26996 5.13717ZM5.86796 7.63475L5.36139 8.14399L5.36155 8.14416L5.86796 7.63475ZM6.61737 6.88108L7.12385 6.37175L7.12367 6.37158L6.61737 6.88108ZM5.31971 4.97425L6.02958 4.86464L6.02956 4.86448L5.31971 4.97425ZM5.32679 4.75325L5.9916 5.02522L5.99776 5.01016L6.00323 4.99484L5.32679 4.75325ZM5.32679 4.749L4.75981 4.30802L4.73893 4.33485L4.72069 4.36355L5.32679 4.749ZM5.30554 4.77663L5.81343 5.28454L5.82371 5.27426L5.83357 5.26358L5.30554 4.77663ZM5.29846 4.78371L5.79649 5.30149L5.80635 5.29163L5.29846 4.78371ZM5.29137 4.79008L4.78347 5.29799L5.2496 5.76412L5.75393 5.33961L5.29137 4.79008ZM4.91596 4.41467V3.69638H3.18186L4.40805 4.92257L4.91596 4.41467ZM8.37687 9.22283L8.48585 8.51286L8.48511 8.51275L8.37687 9.22283ZM9.1355 9.16121L8.88619 8.48757L8.88465 8.48815L9.1355 9.16121ZM9.433 8.99404L9.87871 9.55731L9.8863 9.55131L9.89373 9.5451L9.433 8.99404ZM9.46841 8.96217L9.00098 8.41679L8.98443 8.43097L8.96877 8.44613L9.46841 8.96217ZM9.47337 8.95792L9.94081 9.5033L9.96176 9.48534L9.98128 9.46582L9.47337 8.95792ZM9.4755 8.95579L9.9834 9.4637L10.0659 9.38123L10.118 9.2769L9.4755 8.95579ZM9.47621 8.95438L8.96833 8.44644L8.88584 8.52892L8.83369 8.63327L9.47621 8.95438ZM8.72891 8.19929L8.95609 8.88071L9.11693 8.82709L9.23682 8.7072L8.72891 8.19929ZM8.73033 8.19788L9.23824 8.70578L9.23836 8.70566L8.73033 8.19788ZM8.73175 8.19646L8.27198 7.6446L8.24685 7.66554L8.22372 7.68867L8.73175 8.19646ZM8.736 8.19292L9.19576 8.74478L9.22083 8.72389L9.2439 8.70082L8.736 8.19292ZM8.74308 8.18583L8.26326 7.65132L8.24886 7.66425L8.23518 7.67793L8.74308 8.18583ZM8.77 8.16458L9.17856 8.75537L9.18191 8.75303L8.77 8.16458ZM8.76504 8.166L9.00834 8.84183L9.02839 8.83461L9.04799 8.82621L8.76504 8.166ZM8.53837 8.17308L8.42864 8.88294L8.43024 8.88318L8.53837 8.17308ZM4.76296 0.820584V1.53887H6.19953L5.33759 0.389612L4.76296 0.820584ZM4.76225 0.820584V0.102297H4.52261L4.33097 0.246185L4.76225 0.820584ZM1.06404 3.15454L1.10423 3.8717L1.82265 3.83145L1.78113 3.11309L1.06404 3.15454ZM1.39625 2.42071L1.90261 2.93016L2.4124 2.42345L1.90535 1.914L1.39625 2.42071ZM10.878 12.0193L10.8125 11.304L10.0961 11.3696L10.1628 12.0859L10.878 12.0193ZM12.2401 12.4507L12.7463 12.9603L13.2562 12.4539L12.7495 11.9442L12.2401 12.4507ZM5.65616 2.01483L6.23129 1.58453L5.80089 1.00927L5.22573 1.4398L5.65616 2.01483ZM4.80546 2.65163L4.37502 2.07659L3.80031 2.50679L4.23019 3.08174L4.80546 2.65163ZM4.74525 3.83667L4.23794 3.32817L3.73004 3.83488L4.23615 4.34337L4.74525 3.83667ZM12.2373 9.23488L11.6059 8.89237L11.2637 9.52326L11.8943 9.86599L12.2373 9.23488ZM12.4972 10.6969L11.9907 10.1876L11.4813 10.6944L11.9881 11.2036L12.4972 10.6969ZM12.7437 8.30129L13.0865 7.67008L12.455 7.32714L12.1124 7.95878L12.7437 8.30129ZM9.79991 8.6335L9.29057 9.13997L9.79715 9.64942L10.3065 9.14273L9.79991 8.6335ZM11.3908 7.56604L12.0219 7.90912L12.3648 7.27837L11.7342 6.93515L11.3908 7.56604ZM9.0505 7.87983L8.54434 7.37019L8.03438 7.87665L8.54116 8.3863L9.0505 7.87983ZM12.3626 11.5795L12.7373 11.9563L13.756 10.9434L13.3813 10.5665L12.3626 11.5795ZM13.7555 10.9429L13.3801 10.5661L12.3624 11.5799L12.7378 11.9568L13.7555 10.9429ZM12.8712 11.7913H12.872V10.3547H12.8712V11.7913ZM4.45252 10.0518L4.82652 9.67498L3.80689 8.66302L3.43289 9.03985L4.45252 10.0518ZM3.80737 8.66253L3.43266 9.03937L4.45134 10.0523L4.82605 9.67547L3.80737 8.66253ZM3.942 10.2641H3.94271V8.82755H3.942V10.2641ZM1.52947 1.5367L1.15547 1.16058L0.136781 2.17351L0.510781 2.54963L1.52947 1.5367ZM0.136783 2.17351L0.511492 2.55034L1.53017 1.53741L1.15546 1.16058L0.136783 2.17351ZM1.52874 1.53597L1.52803 1.53526L0.512218 2.55107L0.512926 2.55178L1.52874 1.53597ZM9.98187 9.4638L10.3056 9.14292L9.29424 8.12266L8.97054 8.44353L9.98187 9.4638ZM10.309 8.12608L9.55889 7.37242L8.54069 8.38583L9.29081 9.1395L10.309 8.12608ZM8.54244 7.37066L8.22086 7.69154L9.23555 8.70846L9.55713 8.38759L8.54244 7.37066ZM8.21839 8.70599L8.96639 9.45965L9.98602 8.44768L9.23802 7.69402L8.21839 8.70599ZM10.5399 9.12926L11.8935 9.86521L12.5797 8.60312L11.2261 7.86716L10.5399 9.12926ZM12.8679 9.57668L13.3744 8.64309L12.1117 7.95807L11.6052 8.89166L12.8679 9.57668ZM13.086 7.66947L11.7331 6.93422L11.0471 8.19644L12.4001 8.93169L13.086 7.66947ZM10.7591 7.22225L10.2519 8.15513L11.514 8.84129L12.0212 7.90841L10.7591 7.22225ZM11.9899 10.187L10.9841 11.1879L11.9974 12.2062L13.0032 11.2053L11.9899 10.187ZM10.9814 12.2035L11.7301 12.9565L12.7488 11.9435L12 11.1906L10.9814 12.2035ZM12.7459 12.9593L13.7517 11.9592L12.7388 10.9405L11.7329 11.9407L12.7459 12.9593ZM13.7548 10.9436L13.0061 10.1899L11.987 11.2024L12.7357 11.9561L13.7548 10.9436ZM10.8102 11.3035C9.95584 11.3836 7.52314 11.3437 4.8231 8.65959L3.81031 9.67841C6.86477 12.7148 9.74458 12.8463 10.9444 12.7338L10.8102 11.3035ZM3.06082 10.4313C6.37769 13.7295 9.58987 13.9278 11.0433 13.792L10.9096 12.3617C9.80029 12.4653 7.03556 12.3577 4.07376 9.41262L3.06082 10.4313ZM11.6916 13.0094L11.5917 11.9511L10.1615 12.0861L10.2613 13.1444L11.6916 13.0094ZM10.8766 12.7369H10.8773V11.3003H10.8766V12.7369ZM4.82323 8.65972C2.20876 6.05944 1.82722 3.93421 1.78046 3.113L0.346206 3.19467C0.41278 4.36387 0.940731 6.8244 3.81018 9.67829L4.82323 8.65972ZM1.02264 2.4367L-0.038444 2.49691L0.0429397 3.93118L1.10402 3.87097L1.02264 2.4367ZM-0.714893 3.2546C-0.634205 4.68116 0.00222238 7.39044 3.06086 10.4313L4.07372 9.41258C1.27019 6.62531 0.780367 4.25159 0.719388 3.17348L-0.714893 3.2546ZM5.79768 5.30029L6.00097 5.09771L4.98694 4.08013L4.78365 4.28271L5.79768 5.30029ZM6.00354 4.08269L5.25554 3.32973L4.23638 4.34218L4.98438 5.09514L6.00354 4.08269ZM4.23983 3.32628L4.03654 3.52816L5.04879 4.54751L5.25208 4.34564L4.23983 3.32628ZM4.03332 4.5443L4.78203 5.29726L5.80071 4.28433L5.05201 3.53137L4.03332 4.5443ZM4.78347 4.28289L4.78276 4.2836L5.79857 5.29941L5.79928 5.2987L4.78347 4.28289ZM6.23058 1.58381L5.33808 0.390976L4.18784 1.25161L5.08034 2.44444L6.23058 1.58381ZM4.33221 0.246491L3.48151 0.883991L4.34299 2.03359L5.1937 1.39609L4.33221 0.246491ZM3.33725 1.88927L4.22975 3.0814L5.37975 2.22044L4.48725 1.02831L3.33725 1.88927ZM5.23518 3.22595L6.08589 2.58916L5.22502 1.43909L4.37431 2.07589L5.23518 3.22595ZM1.25263 0.0518087L0.140551 1.15681L1.15311 2.17586L2.26519 1.07086L1.25263 0.0518087ZM0.137492 2.1728L0.886909 2.92647L1.90559 1.91353L1.15617 1.15987L0.137492 2.1728ZM1.90269 2.92936L3.01407 1.82436L2.00118 0.805637L0.889806 1.91064L1.90269 2.92936ZM5.42553 3.90772C5.23819 3.71967 5.14363 3.62476 5.09608 3.57721C5.07375 3.55488 5.0578 3.539 5.04718 3.52869C5.04418 3.52578 5.03936 3.52113 5.0337 3.51586C5.03052 3.51289 5.01611 3.49939 4.99706 3.48378C4.98851 3.47679 4.96535 3.45801 4.9335 3.43727C4.92681 3.43292 4.8153 3.35464 4.65115 3.32925C4.55147 3.31383 4.37566 3.30926 4.19204 3.41144C4.00255 3.51687 3.91076 3.67659 3.8701 3.78324C3.83327 3.87982 3.82671 3.9611 3.82479 3.98792C3.82353 4.00564 3.82319 4.01977 3.82306 4.02722C3.82299 4.03121 3.82298 4.03442 3.82297 4.0363C3.82296 4.03704 3.82296 4.03814 3.82296 4.03851C3.82296 4.03888 3.82296 4.03925 3.82296 4.03925H5.25953C5.25953 4.03326 5.25988 4.06007 5.2577 4.09046C5.25579 4.11724 5.24923 4.19847 5.21242 4.29503C5.17177 4.40164 5.08 4.56134 4.89053 4.66676C4.70694 4.76892 4.53116 4.76435 4.43152 4.74894C4.26747 4.72356 4.1561 4.64535 4.14961 4.64113C4.11797 4.62052 4.09508 4.60195 4.08691 4.59526C4.06858 4.58025 4.05527 4.56773 4.05374 4.5663C4.04974 4.56256 4.04712 4.56001 4.04705 4.55995C4.04676 4.55967 4.04866 4.56151 4.05485 4.56766C4.06062 4.57339 4.06876 4.58151 4.08027 4.59302C4.12657 4.63933 4.21973 4.73283 4.4078 4.92162L5.42553 3.90772ZM4.54125 3.32096H4.53983V4.75754H4.54125V3.32096ZM3.96523 3.60823L3.96311 3.61107L5.1123 4.4731L5.11443 4.47027L3.96523 3.60823ZM4.02464 3.53939C3.95933 3.60605 3.9005 3.67878 3.84895 3.75658L5.04655 4.55C5.04779 4.54813 5.0492 4.54638 5.05077 4.54478L4.02464 3.53939ZM3.8524 3.75143C3.78643 3.84916 3.7173 3.97321 3.65994 4.12578L5.00463 4.6313C5.01811 4.59545 5.03257 4.57075 5.0431 4.55515L3.8524 3.75143ZM3.65532 4.13843C3.5274 4.4991 3.49554 4.88685 3.56288 5.26356L4.97704 5.01078C4.95357 4.87949 4.96467 4.74435 5.00925 4.61865L3.65532 4.13843ZM3.56014 5.24713C3.68904 6.0792 4.23374 7.02225 5.36139 8.14399L6.37453 7.12551C5.34034 6.09675 5.04071 5.42055 4.97978 5.02721L3.56014 5.24713ZM7.12367 6.37158C6.15844 5.41243 6.04029 4.93402 6.02958 4.86464L4.60983 5.08386C4.68837 5.59248 5.05189 6.33808 6.11107 7.39059L7.12367 6.37158ZM6.02956 4.86448C6.02554 4.83852 6.04094 4.9046 5.9916 5.02522L4.66198 4.48128C4.59989 4.63307 4.57137 4.83514 4.60986 5.08402L6.02956 4.86448ZM6.00323 4.99484C5.99977 5.00451 5.9966 5.01255 5.99439 5.018C5.99394 5.01912 5.99359 5.01995 5.99357 5.02001C5.99327 5.02073 5.99407 5.0188 5.99471 5.01723C5.99521 5.016 5.99765 5.01004 6.00055 5.00248C6.00167 4.99955 6.01139 4.97466 6.02063 4.94234C6.02434 4.92936 6.03687 4.88526 6.04357 4.82713C6.04683 4.79876 6.05215 4.73961 6.04386 4.66527C6.03693 4.60319 6.01134 4.43863 5.87909 4.28181C5.71374 4.08575 5.48196 4.01614 5.28681 4.02789C5.13065 4.03729 5.01978 4.09532 4.97877 4.1183C4.89104 4.16747 4.83484 4.22434 4.82567 4.23338C4.79256 4.26601 4.76958 4.29549 4.76829 4.29711C4.76188 4.30515 4.75698 4.31164 4.75588 4.3131C4.7483 4.32315 4.75686 4.31181 4.75981 4.30802L5.89377 5.18999C5.8992 5.183 5.90944 5.16936 5.90288 5.17806C5.90203 5.17918 5.89735 5.1854 5.89111 5.19322C5.88999 5.19462 5.86715 5.22394 5.83414 5.25648C5.82501 5.26547 5.76885 5.3223 5.68115 5.37146C5.64016 5.39444 5.5293 5.45246 5.37315 5.46186C5.17801 5.47361 4.94624 5.404 4.7809 5.20794C4.64865 5.05113 4.62306 4.88658 4.61614 4.82452C4.60785 4.7502 4.61317 4.69106 4.61643 4.66272C4.62312 4.60464 4.63564 4.56059 4.63933 4.54769C4.64852 4.51553 4.65816 4.49086 4.65918 4.48821C4.66197 4.48093 4.66427 4.47532 4.6646 4.47451C4.66507 4.47335 4.66567 4.47189 4.66515 4.47316C4.6649 4.47377 4.6643 4.47522 4.66357 4.47702C4.66025 4.48518 4.65558 4.49703 4.65035 4.51166L6.00323 4.99484ZM4.72069 4.36355C4.7374 4.33727 4.75642 4.31255 4.77751 4.28967L5.83357 5.26358C5.87044 5.22359 5.90369 5.18038 5.93289 5.13446L4.72069 4.36355ZM4.79765 4.26871L4.79056 4.27579L5.80635 5.29163L5.81343 5.28454L4.79765 4.26871ZM4.80052 4.26603C4.80964 4.25725 4.81908 4.24876 4.82882 4.24056L5.75393 5.33961C5.76853 5.32732 5.78269 5.31457 5.79639 5.30139L4.80052 4.26603ZM5.79928 4.28218L5.42386 3.90676L4.40805 4.92257L4.78347 5.29799L5.79928 4.28218ZM4.91596 5.13295H4.91666V3.69638H4.91596V5.13295ZM5.36155 8.14416C6.49016 9.26611 7.4373 9.8062 8.26864 9.93292L8.48511 8.51275C8.08961 8.45247 7.40901 8.1539 6.37436 7.12535L5.36155 8.14416ZM8.26789 9.93281C8.69907 9.99899 9.07606 9.94991 9.38634 9.83427L8.88465 8.48815C8.81102 8.51559 8.68226 8.54301 8.48585 8.51286L8.26789 9.93281ZM9.3848 9.83484C9.56301 9.76889 9.7297 9.67523 9.87871 9.55731L8.98728 8.43077C8.95678 8.45491 8.92267 8.47408 8.88619 8.48758L9.3848 9.83484ZM9.89373 9.5451C9.9193 9.52372 9.94409 9.50141 9.96806 9.4782L8.96877 8.44613C8.96991 8.44503 8.97107 8.44398 8.97226 8.44299L9.89373 9.5451ZM9.93585 9.50755L9.94081 9.5033L9.00594 8.41254L9.00098 8.41679L9.93585 9.50755ZM9.98128 9.46582L9.9834 9.4637L8.96759 8.44789L8.96547 8.45001L9.98128 9.46582ZM10.118 9.2769L10.1187 9.27548L8.83369 8.63327L8.83298 8.63469L10.118 9.2769ZM9.47621 8.95438C9.98408 9.46231 10.0899 9.32759 10.1609 9.17163C10.1732 9.12788 10.1921 9.01267 10.1944 8.94132C10.1924 8.83325 10.1662 8.75159 10.1542 8.71719C10.1287 8.6443 10.0969 8.59259 10.0887 8.57923C10.0662 8.54241 10.0451 8.51582 10.0409 8.51042C10.0271 8.49293 10.0155 8.47986 10.0132 8.47737C10.0057 8.46889 9.99949 8.46231 9.99803 8.46075C9.99346 8.45592 9.98895 8.45126 9.9855 8.4477C9.97775 8.43973 9.96458 8.4263 9.94097 8.40237C9.89332 8.35409 9.79904 8.25893 9.61155 8.07037L8.59287 9.0833C8.78008 9.27158 8.8728 9.36518 8.91848 9.41146C8.94153 9.43482 8.9516 9.44511 8.95543 9.44905C8.95776 9.45145 8.95612 9.44979 8.95298 9.44646C8.95223 9.44567 8.94636 9.43946 8.939 9.43118C8.93688 9.42879 8.92526 9.41577 8.91152 9.3983C8.90729 9.39291 8.88622 9.36634 8.86367 9.32952C8.85548 9.31616 8.82371 9.26445 8.79821 9.19156C8.78618 9.15717 8.76 9.0755 8.75804 8.96743C8.76029 8.89609 8.77919 8.78087 8.79156 8.73713C8.86249 8.58117 8.96833 8.44644 9.47621 8.95438ZM9.61107 8.06989C9.42364 7.88175 9.33188 7.78893 9.28746 7.74367C9.26481 7.72059 9.2565 7.71193 9.25477 7.71011C9.253 7.70825 9.25798 7.71342 9.26511 7.72139C9.26676 7.72324 9.27952 7.7374 9.29454 7.75659C9.29807 7.76109 9.32407 7.7937 9.35048 7.83931C9.3573 7.85109 9.40344 7.928 9.42876 8.03757C9.44056 8.08863 9.46865 8.23034 9.41784 8.40254C9.38975 8.49778 9.33698 8.60303 9.24721 8.69659C9.20239 8.73943 9.1295 8.7955 9.10425 8.81171C9.03214 8.85044 8.95609 8.88071 8.72891 8.19929C8.50174 7.51788 8.42569 7.54815 8.35357 7.58687C8.32833 7.60308 8.25543 7.65915 8.21062 7.702C8.12085 7.79555 8.06808 7.9008 8.03998 7.99604C7.98918 8.16825 8.01727 8.30996 8.02907 8.36102C8.05439 8.47059 8.10053 8.54751 8.10736 8.5593C8.13379 8.60493 8.15982 8.6376 8.16342 8.6422C8.1786 8.66158 8.19168 8.67612 8.19401 8.67873C8.20249 8.68821 8.21023 8.69638 8.21413 8.70047C8.22373 8.71056 8.23835 8.72563 8.2621 8.74983C8.31047 8.79913 8.40536 8.89509 8.59335 9.08378L9.61107 8.06989ZM9.23682 8.7072L9.23824 8.70578L8.22243 7.68997L8.22101 7.69139L9.23682 8.7072ZM9.23836 8.70566L9.23977 8.70424L8.22372 7.68867L8.2223 7.69009L9.23836 8.70566ZM9.19151 8.74832L9.19576 8.74478L8.27623 7.64106L8.27198 7.6446L9.19151 8.74832ZM9.2439 8.70082L9.25099 8.69374L8.23518 7.67793L8.22809 7.68501L9.2439 8.70082ZM9.22291 8.72035C9.20888 8.73293 9.19407 8.74463 9.17856 8.75536L8.36144 7.57381C8.3271 7.59756 8.29431 7.62345 8.26326 7.65132L9.22291 8.72035ZM9.18191 8.75303C9.17737 8.7562 9.17322 8.75898 9.17441 8.75818C9.17476 8.75794 9.17568 8.75733 9.17682 8.75655C9.17784 8.75586 9.18009 8.75433 9.18291 8.75238C9.18514 8.75083 9.1912 8.74663 9.19879 8.74107C9.19963 8.74045 9.22714 8.72075 9.25813 8.69249C9.26759 8.68387 9.28393 8.66853 9.30283 8.64798C9.31717 8.63239 9.35688 8.58842 9.39483 8.52327C9.40785 8.50091 9.5536 8.26678 9.46338 7.95941C9.34171 7.54493 8.96644 7.46244 8.86716 7.44947C8.75209 7.43445 8.66192 7.45187 8.63891 7.45628C8.60253 7.46325 8.5743 7.47163 8.55982 7.47616C8.53025 7.4854 8.50782 7.49458 8.49975 7.49791C8.48117 7.50559 8.46695 7.51243 8.46388 7.5139C8.45854 7.51645 8.45438 7.51853 8.45268 7.51938C8.44508 7.52317 8.46335 7.51382 8.48209 7.50579L9.04799 8.82621C9.07665 8.81393 9.10093 8.80139 9.09511 8.8043C9.09352 8.80509 9.08945 8.80712 9.08419 8.80964C9.0812 8.81107 9.06704 8.81788 9.0485 8.82555C9.04045 8.82887 9.01804 8.83804 8.98849 8.84728C8.97401 8.85181 8.94579 8.86018 8.90941 8.86715C8.88641 8.87156 8.79624 8.88898 8.68118 8.87396C8.5819 8.861 8.20663 8.7785 8.08496 8.36403C7.99473 8.05665 8.14049 7.82253 8.15351 7.80017C8.19146 7.73502 8.23116 7.69106 8.24549 7.67547C8.26439 7.65493 8.28073 7.63959 8.29018 7.63098C8.32115 7.60274 8.34862 7.58307 8.34941 7.58249C8.35693 7.57697 8.36292 7.57282 8.36506 7.57134C8.36779 7.56945 8.36992 7.568 8.37082 7.56739C8.37184 7.5667 8.37261 7.56618 8.3728 7.56605C8.37393 7.5653 8.371 7.56726 8.36844 7.569C8.36546 7.57102 8.36199 7.57341 8.35809 7.57614L9.18191 8.75303ZM8.52174 7.49017C8.53788 7.48436 8.557 7.47835 8.57769 7.47349C8.59729 7.46889 8.61399 7.46635 8.62728 7.46504C8.65413 7.46241 8.66191 7.46533 8.64651 7.46298L8.43024 8.88318C8.68849 8.92251 8.87868 8.88851 9.00834 8.84183L8.52174 7.49017ZM8.64811 7.46323C8.57132 7.45136 8.08773 7.33023 7.12385 6.37175L6.1109 7.39041C7.17002 8.4436 7.91892 8.80414 8.42864 8.88294L8.64811 7.46323ZM5.33759 0.389612C4.37146 -0.898558 2.44496 -1.13366 1.25248 0.0519659L2.26535 1.0707C2.79695 0.542162 3.70945 0.61306 4.18833 1.25156L5.33759 0.389612ZM3.01409 1.82434C3.06577 1.77295 3.22645 1.74132 3.33731 1.88936L4.48718 1.02823C3.8798 0.21718 2.70314 0.107631 2.00116 0.805661L3.01409 1.82434ZM4.34353 2.03319L5.19353 1.39498L4.33097 0.246185L3.48097 0.884393L4.34353 2.03319ZM4.76225 1.53887H4.76296V0.102297H4.76225V1.53887ZM1.78113 3.11309C1.78206 3.12916 1.76973 3.06222 1.90261 2.93016L0.889889 1.91126C0.555263 2.24386 0.317688 2.68976 0.34695 3.19599L1.78113 3.11309ZM1.90535 1.914L1.15522 1.16033L0.137023 2.17375L0.887148 2.92742L1.90535 1.914ZM0.139642 1.15772C-0.338946 1.63363 -0.766034 2.35813 -0.714873 3.25495L0.719369 3.17313C0.69828 2.80346 0.870442 2.45695 1.1526 2.17637L0.139642 1.15772ZM0.0424357 3.9312L1.10423 3.8717L1.02385 2.43738L-0.0379401 2.49688L0.0424357 3.9312ZM10.9828 11.1891C10.929 11.2429 10.8855 11.2724 10.8563 11.2877C10.8279 11.3026 10.8138 11.3039 10.8125 11.304L10.9435 12.7346C11.3622 12.6963 11.72 12.4835 11.9986 12.2049L10.9828 11.1891ZM10.1628 12.0859L10.2613 13.1435L11.6916 13.0103L11.5932 11.9527L10.1628 12.0859ZM11.0436 13.792C11.7738 13.7235 12.3464 13.3576 12.7463 12.9603L11.7339 11.9411C11.4992 12.1743 11.2204 12.3325 10.9093 12.3617L11.0436 13.792ZM12.7495 11.9442L12 11.1906L10.9814 12.2035L11.7308 12.9572L12.7495 11.9442ZM6.00031 5.09837C6.96514 4.13941 7.02158 2.64079 6.23129 1.58453L5.08104 2.44514C5.46516 2.95854 5.41818 3.65151 4.9876 4.07946L6.00031 5.09837ZM5.22573 1.4398L4.37502 2.07659L5.23589 3.22666L6.0866 2.58986L5.22573 1.4398ZM4.23019 3.08174C4.31038 3.189 4.27792 3.28827 4.23794 3.32817L5.25256 4.34517C5.81891 3.78014 5.87145 2.87784 5.38073 2.22151L4.23019 3.08174ZM4.23615 4.34337L4.98485 5.09562L6.00306 4.08221L5.25435 3.32996L4.23615 4.34337ZM11.8943 9.86599C12.0719 9.96249 12.0415 10.137 11.9907 10.1876L13.0038 11.2061C13.7704 10.4435 13.5601 9.13626 12.5803 8.60376L11.8943 9.86599ZM11.9881 11.2036L12.7376 11.9565L13.7558 10.9431L13.0063 10.1902L11.9881 11.2036ZM13.7532 11.9591C15.0706 10.6486 14.6342 8.51058 13.0865 7.67008L12.401 8.93251C13.1723 9.35142 13.3211 10.3627 12.7401 10.9406L13.7532 11.9591ZM12.1124 7.95878L11.6059 8.89237L12.8687 9.57738L13.3751 8.6438L12.1124 7.95878ZM10.3065 9.14273C10.3438 9.10563 10.434 9.07226 10.5416 9.1305L11.2258 7.86733C10.5853 7.52041 9.80004 7.62021 9.29334 8.12427L10.3065 9.14273ZM11.5147 8.842L12.0219 7.90912L10.7598 7.22296L10.2526 8.15584L11.5147 8.842ZM11.7342 6.93515C10.7003 6.37243 9.40029 6.5201 8.54434 7.37019L9.55665 8.38948C9.94171 8.00706 10.5457 7.92382 11.0474 8.19693L11.7342 6.93515ZM8.54116 8.3863L9.29057 9.13997L10.3093 8.12703L9.55984 7.37337L8.54116 8.3863Z" fill="black" mask="url(#path-1-inside-1_604_294)"/>
</svg>
