<svg width="23" height="23" viewBox="0 0 23 23" fill="none" xmlns="http://www.w3.org/2000/svg">
<g clip-path="url(#clip0_600_306)">
<path d="M11.41 0.989258C5.60339 0.989258 0.899414 5.69391 0.899414 11.4998C0.899414 17.3057 5.60407 22.0104 11.41 22.0104C17.2165 22.0104 21.9205 17.3057 21.9205 11.4998C21.9205 5.69391 17.2159 0.989258 11.41 0.989258ZM16.5723 8.19L14.8473 16.3191C14.7198 16.8954 14.3767 17.0351 13.8979 16.7639L11.2703 14.8272L10.0029 16.0478C9.86322 16.1875 9.74455 16.3062 9.47331 16.3062L9.65979 13.6318L14.5292 9.23224C14.7415 9.04576 14.4824 8.93998 14.2024 9.12646L8.18424 12.915L5.59051 12.1053C5.02701 11.9277 5.01412 11.5418 5.70918 11.2706L15.8427 7.36272C16.3133 7.19319 16.7242 7.47732 16.5717 8.18932L16.5723 8.19Z" fill="#51A6E2"/>
<path d="M16.5723 8.19L14.8473 16.3191C14.7198 16.8954 14.3767 17.0351 13.8979 16.7639L11.2703 14.8272L10.0029 16.0478C9.86322 16.1875 9.74455 16.3062 9.47331 16.3062L9.65979 13.6318L14.5292 9.23224C14.7415 9.04576 14.4824 8.93998 14.2024 9.12646L8.18424 12.915L5.59051 12.1053C5.02701 11.9277 5.01412 11.5418 5.70918 11.2706L15.8427 7.36272C16.3133 7.19319 16.7242 7.47732 16.5717 8.18932L16.5723 8.19Z" fill="white"/>
</g>
<defs>
<clipPath id="clip0_600_306">
<rect width="21.6992" height="21.6992" fill="white" transform="translate(0.560547 0.650391)"/>
</clipPath>
</defs>
</svg>
