<svg width="22" height="23" viewBox="0 0 22 23" fill="none" xmlns="http://www.w3.org/2000/svg">
<path d="M19.2195 6.40108C16.385 2.00699 10.5805 0.70504 6.09149 3.431C1.71096 6.15696 0.300514 12.0971 3.13497 16.4776L3.36553 16.8303L2.41619 20.3835L5.96943 19.4342L6.32204 19.6647C7.85455 20.492 9.52267 20.9667 11.1772 20.9667C12.9539 20.9667 14.7305 20.492 16.263 19.5427C20.6435 16.6946 21.9455 10.8765 19.2195 6.37396V6.40108ZM16.7377 15.5419C16.263 16.2471 15.6663 16.7218 14.839 16.8438C14.3643 16.8438 13.7676 17.0744 11.4078 16.1386C9.40061 15.1893 7.73249 13.6432 6.55259 11.8666C5.84737 11.0393 5.4812 9.96788 5.3727 8.89649C5.3727 7.94715 5.72531 7.11986 6.32204 6.52314C6.55259 6.29258 6.79671 6.17053 7.02726 6.17053H7.62399C7.85455 6.17053 8.09866 6.17053 8.22072 6.6452C8.45127 7.24192 9.048 8.66593 9.048 8.78799C9.17006 8.91005 9.11581 9.8187 8.57333 10.3341C8.27497 10.6731 8.22072 10.6867 8.34278 10.9308C8.81745 11.636 9.41418 12.3548 9.99734 12.9515C10.7026 13.5483 11.4214 14.0229 12.2486 14.3755C12.4792 14.4976 12.7233 14.4976 12.8454 14.2535C12.9674 14.0229 13.5506 13.4262 13.7947 13.1821C14.0253 12.9515 14.1473 12.9515 14.3914 13.06L16.2901 14.0094C16.5207 14.1314 16.7648 14.2399 16.8868 14.362C17.0089 14.7146 17.0089 15.1893 16.7648 15.5419H16.7377Z" fill="#5EC76B"/>
<path d="M16.7377 15.5419C16.263 16.2471 15.6663 16.7218 14.839 16.8438C14.3643 16.8438 13.7676 17.0744 11.4078 16.1386C9.40061 15.1893 7.73249 13.6432 6.55259 11.8666C5.84737 11.0393 5.4812 9.96788 5.3727 8.89649C5.3727 7.94715 5.72531 7.11986 6.32204 6.52314C6.55259 6.29258 6.79671 6.17053 7.02726 6.17053H7.62399C7.85455 6.17053 8.09866 6.17053 8.22072 6.6452C8.45127 7.24192 9.048 8.66593 9.048 8.78799C9.17006 8.91005 9.11581 9.8187 8.57333 10.3341C8.27497 10.6731 8.22072 10.6867 8.34278 10.9308C8.81745 11.636 9.41418 12.3548 9.99734 12.9515C10.7026 13.5483 11.4214 14.0229 12.2486 14.3755C12.4792 14.4976 12.7233 14.4976 12.8454 14.2535C12.9674 14.0229 13.5506 13.4262 13.7947 13.1821C14.0253 12.9515 14.1473 12.9515 14.3914 13.06L16.2901 14.0094C16.5207 14.1314 16.7648 14.2399 16.8868 14.362C17.0089 14.7146 17.0089 15.1893 16.7648 15.5419H16.7377Z" fill="white"/>
</svg>
