<svg width="29" height="23" viewBox="0 0 29 23" fill="none" xmlns="http://www.w3.org/2000/svg">
<g clip-path="url(#clip0_600_304)">
<path d="M11.7797 15.9283L19.0195 11.8098L11.7797 7.69142V15.9283ZM27.9053 5.17919C28.0867 5.8244 28.2122 6.68927 28.2959 7.78752C28.3935 8.88576 28.4354 9.833 28.4354 10.6567L28.5191 11.8098C28.5191 14.8163 28.2959 17.0265 27.9053 18.4405C27.5566 19.676 26.7475 20.4722 25.492 20.8154C24.8364 20.9939 23.6368 21.1175 21.7954 21.1998C19.982 21.2959 18.322 21.3371 16.7876 21.3371L14.5696 21.4195C8.72477 21.4195 5.08395 21.1998 3.64716 20.8154C2.3917 20.4722 1.58263 19.676 1.23389 18.4405C1.05255 17.7953 0.927006 16.9304 0.843309 15.8322C0.745663 14.7339 0.703814 13.7867 0.703814 12.963L0.620117 11.8098C0.620117 8.80339 0.843309 6.59318 1.23389 5.17919C1.58263 3.94366 2.3917 3.14743 3.64716 2.80423C4.30278 2.62577 5.50244 2.50221 7.34377 2.41984C9.1572 2.32375 10.8172 2.28256 12.3516 2.28256L14.5696 2.2002C20.4144 2.2002 24.0553 2.41984 25.492 2.80423C26.7475 3.14743 27.5566 3.94366 27.9053 5.17919Z" fill="#ED1C24"/>
<path d="M11.7797 15.9283L19.0195 11.8098L11.7797 7.69142V15.9283Z" fill="white"/>
</g>
<defs>
<clipPath id="clip0_600_304">
<rect width="28.5189" height="21.6992" fill="white" transform="translate(0 0.650391)"/>
</clipPath>
</defs>
</svg>
